<?xml version="1.0" encoding="UTF-8"?>
<svg version="1.1" xmlns="http://www.w3.org/2000/svg" width="300" height="110">
<path d="M0 0 C1.40144005 -0.00934319 1.40144005 -0.00934319 2.83119202 -0.01887512 C3.83750168 -0.00966537 4.84381134 -0.00045563 5.88061523 0.0090332 C6.91484116 0.0085347 7.94906708 0.00803619 9.01463318 0.00752258 C11.20101849 0.00986348 13.38740647 0.01959287 15.57373047 0.03613281 C18.92952425 0.05974631 22.28452502 0.05669116 25.64038086 0.05004883 C27.76213041 0.05562471 29.8838766 0.06273403 32.00561523 0.0715332 C33.01394913 0.0706218 34.02228302 0.06971039 35.06117249 0.06877136 C35.99231369 0.07830338 36.9234549 0.08783539 37.8828125 0.09765625 C38.70427261 0.10226364 39.52573273 0.10687103 40.37208557 0.11161804 C42.37670898 0.37231445 42.37670898 0.37231445 44.37670898 2.37231445 C44.57202148 4.97387695 44.57202148 4.97387695 44.50170898 7.99731445 C44.48366211 9.00020508 44.46561523 10.0030957 44.44702148 11.03637695 C44.42381836 11.80723633 44.40061523 12.5780957 44.37670898 13.37231445 C41.90170898 12.87731445 41.90170898 12.87731445 39.37670898 12.37231445 C39.37670898 10.06231445 39.37670898 7.75231445 39.37670898 5.37231445 C25.51670898 5.37231445 11.65670898 5.37231445 -2.62329102 5.37231445 C-2.62329102 14.94231445 -2.62329102 24.51231445 -2.62329102 34.37231445 C3.31670898 34.37231445 9.25670898 34.37231445 15.37670898 34.37231445 C15.60457357 37.3996582 15.83243815 40.42700195 16.06030273 43.4543457 C16.2788336 46.4322135 16.2788336 46.4322135 17.37670898 49.37231445 C14.07670898 49.37231445 10.77670898 49.37231445 7.37670898 49.37231445 C7.04670898 47.72231445 6.71670898 46.07231445 6.37670898 44.37231445 C8.85170898 43.87731445 8.85170898 43.87731445 11.37670898 43.37231445 C11.37670898 41.72231445 11.37670898 40.07231445 11.37670898 38.37231445 C10.17272461 38.39551758 8.96874023 38.4187207 7.72827148 38.44262695 C6.15275684 38.46138308 4.5772355 38.47958345 3.00170898 38.49731445 C2.20764648 38.51407227 1.41358398 38.53083008 0.59545898 38.5480957 C-1.47821117 38.56566918 -3.55212343 38.47566613 -5.62329102 38.37231445 C-8.07424255 35.92136292 -7.87780528 34.53901263 -7.92683411 31.19129944 C-7.9259227 30.48919846 -7.92501129 29.78709747 -7.92407227 29.0637207 C-7.92835739 28.34119614 -7.93264252 27.61867157 -7.9370575 26.87425232 C-7.94280339 25.34521534 -7.94329914 23.81615101 -7.93896484 22.28710938 C-7.93580772 19.94719772 -7.9592486 17.60855378 -7.98461914 15.26879883 C-7.98689241 13.78377438 -7.9875955 12.29874653 -7.98657227 10.8137207 C-7.99578201 10.11364395 -8.00499176 9.4135672 -8.01448059 8.692276 C-7.96829937 3.84339767 -7.96829937 3.84339767 -6.38897705 1.68695068 C-4.11890169 -0.0032271 -2.81447238 -0.00215444 0 0 Z " fill="#F9F9F9" transform="translate(65.623291015625,22.627685546875)"/>
<path d="M0 0 C0.97388672 0.00064453 1.94777344 0.00128906 2.95117188 0.00195312 C3.96630859 0.01806641 4.98144531 0.03417969 6.02734375 0.05078125 C7.55584961 0.04594727 7.55584961 0.04594727 9.11523438 0.04101562 C16.69785234 0.09628984 16.69785234 0.09628984 18.96484375 2.36328125 C19.13972629 4.80073022 19.1966178 7.12264205 19.16015625 9.55859375 C19.15732635 10.26603729 19.15449646 10.97348083 19.15158081 11.70236206 C19.14037512 13.96450635 19.11527054 16.2262564 19.08984375 18.48828125 C19.07981442 20.02082762 19.07068849 21.55338019 19.0625 23.0859375 C19.04043461 26.84520426 19.00590271 30.60417589 18.96484375 34.36328125 C16.46730746 35.6120494 14.74815871 35.46219089 11.96484375 35.42578125 C11.07796875 35.41675781 10.19109375 35.40773437 9.27734375 35.3984375 C8.51421875 35.38683594 7.75109375 35.37523437 6.96484375 35.36328125 C5.53862913 35.36328125 4.11218759 35.40276961 2.6875 35.46875 C1.80964844 35.49582031 0.93179688 35.52289063 0.02734375 35.55078125 C-0.84792969 35.58558594 -1.72320312 35.62039062 -2.625 35.65625 C-5.03515625 35.36328125 -5.03515625 35.36328125 -6.66088867 34.25317383 C-8.68462024 31.47013847 -8.42381255 29.243342 -8.43359375 25.83203125 C-8.43746094 24.54683594 -8.44132812 23.26164062 -8.4453125 21.9375 C-8.43902832 21.26895996 -8.43274414 20.60041992 -8.42626953 19.91162109 C-8.41020979 17.87008795 -8.42612296 15.83053417 -8.4453125 13.7890625 C-8.44144531 12.50386719 -8.43757813 11.21867187 -8.43359375 9.89453125 C-8.43020996 8.71439453 -8.42682617 7.53425781 -8.42333984 6.31835938 C-8.03515625 3.36328125 -8.03515625 3.36328125 -6.82495117 1.4777832 C-4.43954318 -0.0076059 -2.80229923 -0.00935195 0 0 Z M-3.03515625 4.36328125 C-3.03515625 11.95328125 -3.03515625 19.54328125 -3.03515625 27.36328125 C-0.39515625 27.69328125 2.24484375 28.02328125 4.96484375 28.36328125 C5.02542969 27.43644531 5.08601563 26.50960937 5.1484375 25.5546875 C5.23222656 24.35714844 5.31601563 23.15960938 5.40234375 21.92578125 C5.48355469 20.73082031 5.56476563 19.53585938 5.6484375 18.3046875 C5.96484375 15.36328125 5.96484375 15.36328125 6.96484375 14.36328125 C9.61947496 13.90868267 12.28673513 13.66084887 14.96484375 13.36328125 C14.63484375 10.39328125 14.30484375 7.42328125 13.96484375 4.36328125 C8.35484375 4.36328125 2.74484375 4.36328125 -3.03515625 4.36328125 Z M8.96484375 17.36328125 C8.96484375 21.32328125 8.96484375 25.28328125 8.96484375 29.36328125 C10.94484375 29.36328125 12.92484375 29.36328125 14.96484375 29.36328125 C14.96484375 25.40328125 14.96484375 21.44328125 14.96484375 17.36328125 C12.98484375 17.36328125 11.00484375 17.36328125 8.96484375 17.36328125 Z " fill="#F9F9F9" transform="translate(91.03515625,36.63671875)"/>
<path d="M0 0 C52.8 0 105.6 0 160 0 C160 0.33 160 0.66 160 1 C107.53 1 55.06 1 1 1 C1 44.23 1 87.46 1 132 C53.47 132 105.94 132 160 132 C160 132.33 160 132.66 160 133 C107.2 133 54.4 133 0 133 C0 89.11 0 45.22 0 0 Z " fill="#3B3B3B" transform="translate(0,0)"/>
<path d="M0 0 C3.3 0 6.6 0 10 0 C10 5.28 10 10.56 10 16 C6.7 16 3.4 16 0 16 C0 10.72 0 5.44 0 0 Z " fill="#FAFAFA" transform="translate(125,77)"/>
<path d="M0 0 C2.64 0 5.28 0 8 0 C10 2 10 2 10.1953125 5.2578125 C10.16050781 7.17207031 10.16050781 7.17207031 10.125 9.125 C10.10695313 10.40632813 10.08890625 11.68765625 10.0703125 13.0078125 C10.04710938 13.99523437 10.02390625 14.98265625 10 16 C6.7 16 3.4 16 0 16 C0 10.72 0 5.44 0 0 Z " fill="#FAFAFA" transform="translate(59,77)"/>
<path d="M0 0 C2.64 0 5.28 0 8 0 C10.33368594 3.50052891 10.24221979 4.99614337 10.1875 9.125 C10.17783203 10.73761719 10.17783203 10.73761719 10.16796875 12.3828125 C10 15 10 15 9 16 C5.99668982 16.14193337 3.00782866 16.04236378 0 16 C0 10.72 0 5.44 0 0 Z " fill="#F9F9F9" transform="translate(35,77)"/>
<path d="M0 0 C3 0.1875 3 0.1875 5 1.1875 C5 5.8075 5 10.4275 5 15.1875 C2.23749964 16.56875018 0.05268901 16.37829306 -3 16.1875 C-5 14.1875 -5 14.1875 -5.265625 11.4375 C-5.26046875 10.365 -5.2553125 9.2925 -5.25 8.1875 C-5.25515625 7.115 -5.2603125 6.0425 -5.265625 4.9375 C-4.88101326 0.95563732 -3.96775065 0.24798442 0 0 Z " fill="#FAFAFA" transform="translate(116,76.8125)"/>
<path d="M0 0 C2.31 0 4.62 0 7 0 C9.74869295 2.74869295 9.0625 8.69759747 9.0625 12.4375 C9.041875 13.613125 9.02125 14.78875 9 16 C5.7 16 2.4 16 -1 16 C-0.67 10.72 -0.34 5.44 0 0 Z " fill="#F9F9F9" transform="translate(73,77)"/>
<path d="M0 0 C2.64 0 5.28 0 8 0 C8 1.32 8 2.64 8 4 C7.01 4 6.02 4 5 4 C5 4.66 5 5.32 5 6 C5.99 6 6.98 6 8 6 C8 7.32 8 8.64 8 10 C7.01 10 6.02 10 5 10 C5 10.66 5 11.32 5 12 C5.99 12 6.98 12 8 12 C8 13.32 8 14.64 8 16 C5.36 16 2.72 16 0 16 C0 10.72 0 5.44 0 0 Z " fill="#FAFAFA" transform="translate(100,77)"/>
<path d="M0 0 C2.64 0 5.28 0 8 0 C8 1.32 8 2.64 8 4 C7.01 4 6.02 4 5 4 C5 4.66 5 5.32 5 6 C5.99 6 6.98 6 8 6 C8 7.32 8 8.64 8 10 C7.01 10 6.02 10 5 10 C5 10.66 5 11.32 5 12 C5.99 12 6.98 12 8 12 C8 13.32 8 14.64 8 16 C5.36 16 2.72 16 0 16 C0 10.72 0 5.44 0 0 Z " fill="#F9F9F9" transform="translate(48,77)"/>
<path d="M0 0 C2.97 0 5.94 0 9 0 C9 1.32 9 2.64 9 4 C8.34 4 7.68 4 7 4 C7 7.96 7 11.92 7 16 C5.35 16 3.7 16 2 16 C2 12.04 2 8.08 2 4 C1.34 4 0.68 4 0 4 C0 2.68 0 1.36 0 0 Z " fill="#FAFAFA" transform="translate(88,77)"/>
<path d="M0 0 C2 2 2 2 2.3125 5 C2.1578125 6.485 2.1578125 6.485 2 8 C-1.23253796 10.15502531 -2.25150923 10.46856135 -6 10 C-7.8125 8.8125 -7.8125 8.8125 -9 7 C-9.4375 4.5 -9.4375 4.5 -9 2 C-6.07557433 -1.24936186 -4.04996841 -1.38551551 0 0 Z M-6 3 C-5 6 -5 6 -5 6 Z " fill="#F4F3F4" transform="translate(75,39)"/>
<path d="M0 0 C2.31 0 4.62 0 7 0 C7 1.98 7 3.96 7 6 C4.69 6 2.38 6 0 6 C0 4.02 0 2.04 0 0 Z " fill="#F8F8F8" transform="translate(90,101)"/>
<path d="M0 0 C1.65 0 3.3 0 5 0 C5 1.98 5 3.96 5 6 C3.35 6 1.7 6 0 6 C0 4.02 0 2.04 0 0 Z " fill="#F5F5F5" transform="translate(59,101)"/>
<path d="M0 0 C2.475 0.495 2.475 0.495 5 1 C5 2.65 5 4.3 5 6 C3.35 6 1.7 6 0 6 C0 4.02 0 2.04 0 0 Z " fill="#F0F0F0" transform="translate(99,101)"/>
<path d="M0 0 C2.475 0.495 2.475 0.495 5 1 C4.67 2.65 4.34 4.3 4 6 C2.68 6 1.36 6 0 6 C0 4.02 0 2.04 0 0 Z " fill="#F7F7F7" transform="translate(83,101)"/>
<path d="M0 0 C2.475 0.495 2.475 0.495 5 1 C4.67 2.65 4.34 4.3 4 6 C2.68 6 1.36 6 0 6 C0 4.02 0 2.04 0 0 Z " fill="#ECECEC" transform="translate(71,101)"/>
<path d="M0 0 C1.32 0 2.64 0 4 0 C4 1.98 4 3.96 4 6 C2.68 6 1.36 6 0 6 C-0.38218767 4.34385343 -0.71395102 2.67542976 -1 1 C-0.67 0.67 -0.34 0.34 0 0 Z " fill="#F4F4F4" transform="translate(106,101)"/>
<path d="M0 0 C0.99 0.33 1.98 0.66 3 1 C3 2.98 3 4.96 3 7 C2.01 7 1.02 7 0 7 C-0.38133299 5.0085944 -0.71325582 3.00720923 -1 1 C-0.67 0.67 -0.34 0.34 0 0 Z " fill="#E5E5E5" transform="translate(78,100)"/>
<path d="M0 0 C0.99 0 1.98 0 3 0 C3 2.31 3 4.62 3 7 C2.01 7 1.02 7 0 7 C0 4.69 0 2.38 0 0 Z " fill="#F8F8F8" transform="translate(66,100)"/>
</svg>
